<svg width="21" height="20" viewBox="0 0 21 20" fill="none" xmlns="http://www.w3.org/2000/svg">
<path fill-rule="evenodd" clip-rule="evenodd" d="M9.66663 1.66666C8.56156 1.66666 7.50175 2.10564 6.72035 2.88704C5.93895 3.66845 5.49996 4.72825 5.49996 5.83332C5.49996 6.93839 5.93895 7.9982 6.72035 8.7796C7.50175 9.561 8.56156 9.99999 9.66663 9.99999C10.7717 9.99999 11.8315 9.561 12.6129 8.7796C13.3943 7.9982 13.8333 6.93839 13.8333 5.83332C13.8333 4.72825 13.3943 3.66845 12.6129 2.88704C11.8315 2.10564 10.7717 1.66666 9.66663 1.66666ZM9.66663 10.8333C7.67079 10.8333 5.85413 11.4117 4.51829 12.2267C3.85163 12.6333 3.28163 13.1133 2.86996 13.635C2.46496 14.1467 2.16663 14.7608 2.16663 15.4167C2.16663 16.1208 2.50913 16.6758 3.00246 17.0717C3.46913 17.4467 4.08496 17.695 4.73913 17.8683C6.05413 18.2158 7.80913 18.3333 9.66663 18.3333C9.85885 18.3333 10.0491 18.3319 10.2375 18.3292C10.377 18.3272 10.5139 18.2903 10.6354 18.2217C10.757 18.1531 10.8594 18.0551 10.9332 17.9367C11.0071 17.8182 11.05 17.6831 11.058 17.5438C11.066 17.4044 11.0389 17.2653 10.9791 17.1392C10.6631 16.4703 10.4995 15.7397 10.5 15C10.5 13.9567 10.8191 12.99 11.3641 12.1892C11.4451 12.0701 11.4939 11.9322 11.5058 11.7887C11.5176 11.6452 11.492 11.5011 11.4316 11.3705C11.3712 11.2398 11.278 11.127 11.161 11.0431C11.044 10.9592 10.9073 10.907 10.7641 10.8917C10.4052 10.8528 10.0394 10.8333 9.66663 10.8333ZM18.59 13.39C18.7418 13.2328 18.8258 13.0223 18.8239 12.8038C18.822 12.5853 18.7343 12.3763 18.5798 12.2218C18.4253 12.0673 18.2163 11.9797 17.9978 11.9778C17.7793 11.9759 17.5688 12.0599 17.4116 12.2117L14.76 14.8633L13.5816 13.685C13.4245 13.5332 13.214 13.4492 12.9955 13.4511C12.777 13.453 12.568 13.5406 12.4134 13.6951C12.2589 13.8496 12.1713 14.0587 12.1694 14.2772C12.1675 14.4957 12.2515 14.7062 12.4033 14.8633L14.1116 16.5717C14.1968 16.6568 14.2978 16.7244 14.4091 16.7705C14.5203 16.8166 14.6395 16.8403 14.76 16.8403C14.8804 16.8403 14.9996 16.8166 15.1109 16.7705C15.2221 16.7244 15.3232 16.6568 15.4083 16.5717L18.59 13.39Z" fill="white"/>
</svg>
