<svg width="21" height="20" viewBox="0 0 21 20" fill="none" xmlns="http://www.w3.org/2000/svg">
<path d="M17.3917 13.5542L17.9792 10.1542C18.0137 9.9549 18.0042 9.75049 17.9514 9.55526C17.8987 9.36003 17.8039 9.17868 17.6737 9.0239C17.5435 8.86912 17.3811 8.74466 17.1978 8.6592C17.0145 8.57375 16.8148 8.52937 16.6125 8.52917H12.295C12.1943 8.52919 12.0947 8.50728 12.0033 8.46495C11.9119 8.42262 11.8307 8.3609 11.7655 8.28406C11.7004 8.20722 11.6527 8.11711 11.6258 8.02C11.599 7.92288 11.5936 7.82108 11.61 7.72167L12.1625 4.35084C12.2518 3.80351 12.2262 3.2436 12.0875 2.70667C12.0277 2.48501 11.9129 2.28201 11.7539 2.11641C11.5948 1.95081 11.3966 1.82795 11.1775 1.75917L11.0567 1.72001C10.7835 1.63259 10.4872 1.65286 10.2284 1.77667C9.94505 1.91334 9.73838 2.16251 9.66171 2.45834L9.26505 3.98667C9.13898 4.4731 8.95546 4.94279 8.71838 5.38584C8.37255 6.03334 7.83755 6.55251 7.28088 7.03167L6.08171 8.06501C5.91535 8.20876 5.78542 8.38989 5.70257 8.59355C5.61972 8.79721 5.58629 9.01761 5.60505 9.23667L6.28171 17.0642C6.31154 17.4103 6.47008 17.7328 6.72604 17.9677C6.98199 18.2027 7.31676 18.3332 7.66421 18.3333H11.5375C14.4392 18.3333 16.915 16.3117 17.3917 13.5542Z" fill="white"/>
<path fill-rule="evenodd" clip-rule="evenodd" d="M2.97328 7.90416C3.13433 7.89712 3.29187 7.95258 3.41299 8.05895C3.53412 8.16532 3.60946 8.31438 3.62328 8.475L4.43161 17.8383C4.4453 17.9778 4.43043 18.1185 4.38789 18.252C4.34536 18.3855 4.27606 18.5089 4.18423 18.6147C4.0924 18.7206 3.97996 18.8065 3.85378 18.8674C3.7276 18.9283 3.59033 18.9629 3.45036 18.9689C3.31039 18.975 3.17065 18.9525 3.03967 18.9027C2.9087 18.853 2.78924 18.7771 2.68859 18.6796C2.58795 18.5821 2.50822 18.4652 2.4543 18.3358C2.40037 18.2065 2.37337 18.0676 2.37494 17.9275V8.52833C2.37501 8.36723 2.43728 8.21238 2.54876 8.09609C2.66024 7.97979 2.81233 7.91104 2.97328 7.90416Z" fill="white"/>
</svg>
