<svg width="20" height="20" viewBox="0 0 20 20" fill="none" xmlns="http://www.w3.org/2000/svg">
<path d="M1.66663 5.00004C1.66663 4.55801 1.84222 4.13409 2.15478 3.82153C2.46734 3.50897 2.89126 3.33337 3.33329 3.33337H16.6666C17.1087 3.33337 17.5326 3.50897 17.8451 3.82153C18.1577 4.13409 18.3333 4.55801 18.3333 5.00004V15C18.3333 15.4421 18.1577 15.866 17.8451 16.1786C17.5326 16.4911 17.1087 16.6667 16.6666 16.6667H3.33329C2.89126 16.6667 2.46734 16.4911 2.15478 16.1786C1.84222 15.866 1.66663 15.4421 1.66663 15V5.00004ZM4.59913 5.00004L9.99996 9.72587L15.4008 5.00004H4.59913ZM16.6666 6.10754L10.5491 11.4609C10.3972 11.594 10.202 11.6674 9.99996 11.6674C9.79792 11.6674 9.60276 11.594 9.45079 11.4609L3.33329 6.10754V15H16.6666V6.10754Z" fill="#EBE7E7"/>
</svg>
