<svg width="20" height="20" viewBox="0 0 20 20" fill="none" xmlns="http://www.w3.org/2000/svg">
<path d="M9.16663 1.66663V7.01163C8.01272 6.79746 6.82085 6.94417 5.75333 7.43177C4.6858 7.91937 3.79451 8.72416 3.20084 9.73654C2.60716 10.7489 2.33996 11.9197 2.43562 13.0894C2.53128 14.2591 2.98516 15.3709 3.73543 16.2734C4.4857 17.1758 5.49591 17.8251 6.62847 18.1328C7.76104 18.4405 8.96091 18.3916 10.0647 17.9928C11.1685 17.594 12.1225 16.8647 12.7969 15.9041C13.4712 14.9436 13.8331 13.7986 13.8333 12.625V9.51163C14.7291 9.89263 15.6932 10.0871 16.6666 10.0833H17.5V5.41663H16.6666C15.0808 5.41663 13.8333 4.13579 13.8333 2.49996V1.66663H9.16663ZM10.8333 3.33329H12.24C12.5683 5.18329 13.9733 6.66329 15.8333 7.00829V8.35663C14.9683 8.22996 14.1875 7.90496 13.4641 7.42079L12.1666 6.55246V12.625C12.1666 13.4332 11.9242 14.2228 11.4708 14.8919C11.0174 15.561 10.3738 16.0787 9.62311 16.3783C8.87246 16.6779 8.04923 16.7456 7.25974 16.5726C6.47025 16.3995 5.75077 15.9938 5.19421 15.4077C4.63766 14.8216 4.26961 14.0822 4.13758 13.2848C4.00556 12.4874 4.11563 11.6688 4.45359 10.9346C4.79154 10.2004 5.34185 9.58442 6.03344 9.16617C6.72504 8.74792 7.52614 8.54663 8.3333 8.58829V9.92496C7.79036 9.88307 7.2474 10.0058 6.77528 10.2772C6.30316 10.5486 5.92382 10.956 5.68675 11.4462C5.44968 11.9365 5.3659 12.4868 5.44634 13.0254C5.52679 13.5639 5.76772 14.0658 6.13769 14.4653C6.50767 14.8649 6.9895 15.1437 7.52031 15.2652C8.05112 15.3868 8.60625 15.3456 9.11326 15.1468C9.62026 14.9481 10.0556 14.6012 10.3624 14.1513C10.6693 13.7014 10.8334 13.1695 10.8333 12.625V3.33329ZM7.0833 12.625C7.0833 12.3487 7.19304 12.0837 7.38839 11.8884C7.58374 11.693 7.8487 11.5833 8.12496 11.5833C8.40123 11.5833 8.66618 11.693 8.86153 11.8884C9.05688 12.0837 9.16663 12.3487 9.16663 12.625C9.16663 12.9012 9.05688 13.1662 8.86153 13.3615C8.66618 13.5569 8.40123 13.6666 8.12496 13.6666C7.8487 13.6666 7.58374 13.5569 7.38839 13.3615C7.19304 13.1662 7.0833 12.9012 7.0833 12.625Z" fill="#EBE7E7"/>
</svg>
